  0
SECTION
  2
HEADER
  9
$ACADVER
  1
AC1014
  9
$HANDSEED
  5
FFFF
  9
$INSUNITS
 70
     4
  9
$MEASUREMENT
 70
     1
  0
ENDSEC
  0
SECTION
  2
TABLES
  0
TABLE
  2
VPORT
  5
8
330
0
100
AcDbSymbolTable
 70
     4
  0
VPORT
  5
2E
330
8
100
AcDbSymbolTableRecord
100
AcDbViewportTableRecord
  2
*ACTIVE
 70
     0
 10
0.0
 20
0.0
 11
1.0
 21
1.0
 12
210.0
 22
148.5
 13
0.0
 23
0.0
 14
10.0
 24
10.0
 15
10.0
 25
10.0
 16
0.0
 26
0.0
 36
1.0
 17
0.0
 27
0.0
 37
0.0
 40
341.0
 41
1.24
 42
50.0
 43
0.0
 44
0.0
 50
0.0
 51
0.0
 71
     0
 72
   100
 73
     1
 74
     3
 75
     0
 76
     0
 77
     0
 78
     0
  0
ENDTAB
  0
TABLE
  2
LTYPE
  5
5
330
0
100
AcDbSymbolTable
 70
     1
  0
LTYPE
  5
14
330
5
100
AcDbSymbolTableRecord
100
AcDbLinetypeTableRecord
  2
BYBLOCK
 70
     0
  3

 72
    65
 73
     0
 40
0.0
  0
LTYPE
  5
15
330
5
100
AcDbSymbolTableRecord
100
AcDbLinetypeTableRecord
  2
BYLAYER
 70
     0
  3

 72
    65
 73
     0
 40
0.0
  0
LTYPE
  5
16
330
5
100
AcDbSymbolTableRecord
100
AcDbLinetypeTableRecord
  2
CONTINUOUS
 70
     0
  3
Solid line
 72
    65
 73
     0
 40
0.0
  0
ENDTAB
  0
TABLE
  2
LAYER
  5
2
100
AcDbSymbolTable
 70
2
  0
LAYER
  5
50
100
AcDbSymbolTableRecord
100
AcDbLayerTableRecord
  2
0
 70
0
  6
CONTINUOUS
  0
LAYER
  5
51
100
AcDbSymbolTableRecord
100
AcDbLayerTableRecord
  2
Layer_1
 70
0
  6
CONTINUOUS
  0
ENDTAB
  0
TABLE
  2
STYLE
  5
3
330
0
100
AcDbSymbolTable
 70
     1
  0
STYLE
  5
11
330
3
100
AcDbSymbolTableRecord
100
AcDbTextStyleTableRecord
  2
STANDARD
 70
     0
 40
0.0
 41
1.0
 50
0.0
 71
     0
 42
2.5
  3
txt
  4

  0
ENDTAB
  0
TABLE
  2
VIEW
  5
6
330
0
100
AcDbSymbolTable
 70
     0
  0
ENDTAB
  0
TABLE
  2
UCS
  5
7
330
0
100
AcDbSymbolTable
 70
     0
  0
ENDTAB
  0
TABLE
  2
APPID
  5
9
330
0
100
AcDbSymbolTable
 70
     2
  0
APPID
  5
12
330
9
100
AcDbSymbolTableRecord
100
AcDbRegAppTableRecord
  2
ACAD
 70
     0
  0
ENDTAB
  0
TABLE
  2
DIMSTYLE
  5
A
330
0
100
AcDbSymbolTable
 70
     1
  0
DIMSTYLE
105
27
330
A
100
AcDbSymbolTableRecord
100
AcDbDimStyleTableRecord
  2
ISO-25
 70
     0
  3

  4

  5

  6

  7

 40
1.0
 41
2.5
 42
0.625
 43
3.75
 44
1.25
 45
0.0
 46
0.0
 47
0.0
 48
0.0
140
2.5
141
2.5
142
0.0
143
0.03937007874016
144
1.0
145
0.0
146
1.0
147
0.625
 71
     0
 72
     0
 73
     0
 74
     0
 75
     0
 76
     0
 77
     1
 78
     8
170
     0
171
     3
172
     1
173
     0
174
     0
175
     0
176
     0
177
     0
178
     0
270
     2
271
     2
272
     2
273
     2
274
     3
340
11
275
     0
280
     0
281
     0
282
     0
283
     0
284
     8
285
     0
286
     0
287
     3
288
     0
  0
ENDTAB
  0
TABLE
  2
BLOCK_RECORD
  5
1
330
0
100
AcDbSymbolTable
 70
     1
  0
BLOCK_RECORD
  5
1F
330
1
100
AcDbSymbolTableRecord
100
AcDbBlockTableRecord
  2
*MODEL_SPACE
  0
BLOCK_RECORD
  5
1B
330
1
100
AcDbSymbolTableRecord
100
AcDbBlockTableRecord
  2
*PAPER_SPACE
  0
ENDTAB
  0
ENDSEC
  0
SECTION
  2
BLOCKS
  0
BLOCK
  5
20
330
1F
100
AcDbEntity
  8
0
100
AcDbBlockBegin
  2
*MODEL_SPACE
 70
     0
 10
0.0
 20
0.0
 30
0.0
  3
*MODEL_SPACE
  1

  0
ENDBLK
  5
21
330
1F
100
AcDbEntity
  8
0
100
AcDbBlockEnd
  0
BLOCK
  5
1C
330
1B
100
AcDbEntity
 67
     1
  8
0
100
AcDbBlockBegin
  2
*PAPER_SPACE
  1

  0
ENDBLK
  5
1D
330
1B
100
AcDbEntity
 67
     1
  8
0
100
AcDbBlockEnd
  0
ENDSEC
  0
SECTION
  2
ENTITIES
  0
SPLINE
  5
100
100
AcDbEntity
  8
Layer_1
 62
7
100
AcDbSpline
 70
8
 71
3
 72
8
 73
4
 74
0
 40
0
 40
0
 40
0
 40
0
 40
1
 40
1
 40
1
 40
1
 10
27.935481
 20
167.782700
 30
0.0
 10
28.846514
 20
164.533420
 30
0.0
 10
21.815929
 20
162.585320
 30
0.0
 10
21.889338
 20
165.750040
 30
0.0
  0
SPLINE
  5
101
100
AcDbEntity
  8
Layer_1
 62
7
100
AcDbSpline
 70
8
 71
3
 72
8
 73
4
 74
0
 40
0
 40
0
 40
0
 40
0
 40
1
 40
1
 40
1
 40
1
 10
21.889338
 20
165.750040
 30
0.0
 10
23.104830
 20
165.874920
 30
0.0
 10
27.334915
 20
165.397380
 30
0.0
 10
26.230156
 20
168.839170
 30
0.0
  0
SPLINE
  5
102
100
AcDbEntity
  8
Layer_1
 62
7
100
AcDbSpline
 70
8
 71
3
 72
8
 73
4
 74
0
 40
0
 40
0
 40
0
 40
0
 40
1
 40
1
 40
1
 40
1
 10
26.230156
 20
175.913110
 30
0.0
 10
25.230701
 20
176.160100
 30
0.0
 10
23.006298
 20
175.182140
 30
0.0
 10
23.517143
 20
176.939440
 30
0.0
  0
SPLINE
  5
103
100
AcDbEntity
  8
Layer_1
 62
7
100
AcDbSpline
 70
8
 71
3
 72
8
 73
4
 74
0
 40
0
 40
0
 40
0
 40
0
 40
1
 40
1
 40
1
 40
1
 10
23.517143
 20
176.939440
 30
0.0
 10
24.025182
 20
177.706060
 30
0.0
 10
25.944647
 20
177.061260
 30
0.0
 10
27.006650
 20
177.273920
 30
0.0
  0
SPLINE
  5
104
100
AcDbEntity
  8
Layer_1
 62
7
100
AcDbSpline
 70
8
 71
3
 72
8
 73
4
 74
0
 40
0
 40
0
 40
0
 40
0
 40
1
 40
1
 40
1
 40
1
 10
27.006650
 20
177.273920
 30
0.0
 10
28.688742
 20
177.688500
 30
0.0
 10
27.651275
 20
175.383520
 30
0.0
 10
27.935479
 20
174.400210
 30
0.0
  0
SPLINE
  5
105
100
AcDbEntity
  8
Layer_1
 62
7
100
AcDbSpline
 70
8
 71
3
 72
8
 73
4
 74
0
 40
0
 40
0
 40
0
 40
0
 40
1
 40
1
 40
1
 40
1
 10
27.935479
 20
174.400210
 30
0.0
 10
27.935480
 20
172.194370
 30
0.0
 10
27.935480
 20
169.988540
 30
0.0
 10
27.935481
 20
167.782700
 30
0.0
  0
LWPOLYLINE
  5
106
100
AcDbEntity
  8
Layer_1
 62
7
100
AcDbPolyline
 90
2
 70
0
 10
26.230156
 20
168.839170
 30
0.0
 10
26.230156
 20
175.913110
 30
0.0
  0
LWPOLYLINE
  5
107
100
AcDbEntity
  8
Layer_1
 62
7
100
AcDbPolyline
 90
1
 70
1
 10
27.935481
 20
167.782700
 30
0.0
  0
SPLINE
  5
108
100
AcDbEntity
  8
Layer_1
 62
7
100
AcDbSpline
 70
8
 71
3
 72
8
 73
4
 74
0
 40
0
 40
0
 40
0
 40
0
 40
1
 40
1
 40
1
 40
1
 10
39.700483
 20
177.273940
 30
0.0
 10
40.278115
 20
175.438390
 30
0.0
 10
38.767266
 20
175.691320
 30
0.0
 10
37.442566
 20
175.758100
 30
0.0
  0
LWPOLYLINE
  5
109
100
AcDbEntity
  8
Layer_1
 62
7
100
AcDbPolyline
 90
4
 70
0
 10
39.700483
 20
164.449570
 30
0.0
 10
31.251386
 20
164.449570
 30
0.0
 10
31.251386
 20
177.273940
 30
0.0
 10
39.700483
 20
177.273940
 30
0.0
  0
SPLINE
  5
10a
100
AcDbEntity
  8
Layer_1
 62
7
100
AcDbSpline
 70
8
 71
3
 72
8
 73
4
 74
0
 40
0
 40
0
 40
0
 40
0
 40
1
 40
1
 40
1
 40
1
 10
32.956708
 20
175.758100
 30
0.0
 10
33.108261
 20
174.669900
 30
0.0
 10
32.662495
 20
172.984380
 30
0.0
 10
33.161973
 20
172.244100
 30
0.0
  0
LWPOLYLINE
  5
10b
100
AcDbEntity
  8
Layer_1
 62
7
100
AcDbPolyline
 90
2
 70
0
 10
37.442566
 20
175.758100
 30
0.0
 10
32.956708
 20
175.758100
 30
0.0
  0
SPLINE
  5
10c
100
AcDbEntity
  8
Layer_1
 62
7
100
AcDbSpline
 70
8
 71
3
 72
8
 73
4
 74
0
 40
0
 40
0
 40
0
 40
0
 40
1
 40
1
 40
1
 40
1
 10
39.700483
 20
172.244100
 30
0.0
 10
40.278115
 20
170.408550
 30
0.0
 10
38.767266
 20
170.661480
 30
0.0
 10
37.442566
 20
170.728260
 30
0.0
  0
LWPOLYLINE
  5
10d
100
AcDbEntity
  8
Layer_1
 62
7
100
AcDbPolyline
 90
2
 70
0
 10
33.161973
 20
172.244100
 30
0.0
 10
39.700483
 20
172.244100
 30
0.0
  0
SPLINE
  5
10e
100
AcDbEntity
  8
Layer_1
 62
7
100
AcDbSpline
 70
8
 71
3
 72
8
 73
4
 74
0
 40
0
 40
0
 40
0
 40
0
 40
1
 40
1
 40
1
 40
1
 10
52.188954
 20
177.273940
 30
0.0
 10
50.713305
 20
175.160950
 30
0.0
 10
49.237655
 20
173.047950
 30
0.0
 10
47.762006
 20
170.934960
 30
0.0
  0
SPLINE
  5
10f
100
AcDbEntity
  8
Layer_1
 62
7
100
AcDbSpline
 70
8
 71
3
 72
8
 73
4
 74
0
 40
0
 40
0
 40
0
 40
0
 40
1
 40
1
 40
1
 40
1
 10
47.762006
 20
170.934960
 30
0.0
 10
49.234784
 20
168.773160
 30
0.0
 10
50.707563
 20
166.611370
 30
0.0
 10
52.180341
 20
164.449570
 30
0.0
  0
SPLINE
  5
110
100
AcDbEntity
  8
Layer_1
 62
7
100
AcDbSpline
 70
8
 71
3
 72
8
 73
4
 74
0
 40
0
 40
0
 40
0
 40
0
 40
1
 40
1
 40
1
 40
1
 10
52.180341
 20
164.449570
 30
0.0
 10
50.761600
 20
164.178670
 30
0.0
 10
49.706858
 20
164.585450
 30
0.0
 10
49.187922
 20
165.989770
 30
0.0
  0
SPLINE
  5
111
100
AcDbEntity
  8
Layer_1
 62
7
100
AcDbSpline
 70
8
 71
3
 72
8
 73
4
 74
0
 40
0
 40
0
 40
0
 40
0
 40
1
 40
1
 40
1
 40
1
 10
49.187922
 20
165.989770
 30
0.0
 10
48.362365
 20
167.236240
 30
0.0
 10
47.536809
 20
168.482710
 30
0.0
 10
46.711252
 20
169.729180
 30
0.0
  0
SPLINE
  5
112
100
AcDbEntity
  8
Layer_1
 62
7
100
AcDbSpline
 70
8
 71
3
 72
8
 73
4
 74
0
 40
0
 40
0
 40
0
 40
0
 40
1
 40
1
 40
1
 40
1
 10
46.711252
 20
169.729180
 30
0.0
 10
45.516952
 20
167.969310
 30
0.0
 10
44.322653
 20
166.209440
 30
0.0
 10
43.128353
 20
164.449570
 30
0.0
  0
SPLINE
  5
113
100
AcDbEntity
  8
Layer_1
 62
7
100
AcDbSpline
 70
8
 71
3
 72
8
 73
4
 74
0
 40
0
 40
0
 40
0
 40
0
 40
1
 40
1
 40
1
 40
1
 10
43.128353
 20
164.449570
 30
0.0
 10
41.312463
 20
164.147000
 30
0.0
 10
41.023995
 20
164.641270
 30
0.0
 10
42.324946
 20
165.964730
 30
0.0
  0
SPLINE
  5
114
100
AcDbEntity
  8
Layer_1
 62
7
100
AcDbSpline
 70
8
 71
3
 72
8
 73
4
 74
0
 40
0
 40
0
 40
0
 40
0
 40
1
 40
1
 40
1
 40
1
 10
42.324946
 20
165.964730
 30
0.0
 10
43.462635
 20
167.595640
 30
0.0
 10
44.600324
 20
169.226540
 30
0.0
 10
45.738013
 20
170.857450
 30
0.0
  0
LWPOLYLINE
  5
115
100
AcDbEntity
  8
Layer_1
 62
7
100
AcDbPolyline
 90
6
 70
0
 10
37.442566
 20
170.728260
 30
0.0
 10
32.956708
 20
170.728260
 30
0.0
 10
32.956708
 20
165.965410
 30
0.0
 10
39.700483
 20
165.965410
 30
0.0
 10
39.700483
 20
164.449570
 30
0.0
 10
39.700483
 20
164.449570
 30
0.0
  0
SPLINE
  5
116
100
AcDbEntity
  8
Layer_1
 62
7
100
AcDbSpline
 70
8
 71
3
 72
8
 73
4
 74
0
 40
0
 40
0
 40
0
 40
0
 40
1
 40
1
 40
1
 40
1
 10
41.371354
 20
177.273940
 30
0.0
 10
42.788647
 20
177.547600
 30
0.0
 10
43.836691
 20
177.133520
 30
0.0
 10
44.355688
 20
175.734090
 30
0.0
  0
SPLINE
  5
117
100
AcDbEntity
  8
Layer_1
 62
7
100
AcDbSpline
 70
8
 71
3
 72
8
 73
4
 74
0
 40
0
 40
0
 40
0
 40
0
 40
1
 40
1
 40
1
 40
1
 10
44.355688
 20
175.734090
 30
0.0
 10
45.166714
 20
174.510470
 30
0.0
 10
45.977741
 20
173.286850
 30
0.0
 10
46.788767
 20
172.063230
 30
0.0
  0
SPLINE
  5
118
100
AcDbEntity
  8
Layer_1
 62
7
100
AcDbSpline
 70
8
 71
3
 72
8
 73
4
 74
0
 40
0
 40
0
 40
0
 40
0
 40
1
 40
1
 40
1
 40
1
 10
46.788767
 20
172.063230
 30
0.0
 10
47.965841
 20
173.800130
 30
0.0
 10
49.142916
 20
175.537040
 30
0.0
 10
50.319990
 20
177.273940
 30
0.0
  0
LWPOLYLINE
  5
119
100
AcDbEntity
  8
Layer_1
 62
7
100
AcDbPolyline
 90
2
 70
0
 10
45.738013
 20
170.857450
 30
0.0
 10
41.371354
 20
177.273940
 30
0.0
  0
SPLINE
  5
11a
100
AcDbEntity
  8
Layer_1
 62
7
100
AcDbSpline
 70
8
 71
3
 72
8
 73
4
 74
0
 40
0
 40
0
 40
0
 40
0
 40
1
 40
1
 40
1
 40
1
 10
62.877364
 20
173.398210
 30
0.0
 10
62.992548
 20
170.070190
 30
0.0
 10
59.413324
 20
168.848260
 30
0.0
 10
56.667610
 20
169.229640
 30
0.0
  0
SPLINE
  5
11b
100
AcDbEntity
  8
Layer_1
 62
7
100
AcDbSpline
 70
8
 71
3
 72
8
 73
4
 74
0
 40
0
 40
0
 40
0
 40
0
 40
1
 40
1
 40
1
 40
1
 10
56.667610
 20
169.229640
 30
0.0
 10
55.604405
 20
169.040190
 30
0.0
 10
56.477982
 20
166.913950
 30
0.0
 10
56.193878
 20
165.945400
 30
0.0
  0
SPLINE
  5
11c
100
AcDbEntity
  8
Layer_1
 62
7
100
AcDbSpline
 70
8
 71
3
 72
8
 73
4
 74
0
 40
0
 40
0
 40
0
 40
0
 40
1
 40
1
 40
1
 40
1
 10
56.193878
 20
165.945400
 30
0.0
 10
57.007246
 20
164.454690
 30
0.0
 10
54.842222
 20
163.827280
 30
0.0
 10
54.488556
 20
164.860100
 30
0.0
  0
LWPOLYLINE
  5
11d
100
AcDbEntity
  8
Layer_1
 62
7
100
AcDbPolyline
 90
3
 70
0
 10
50.319990
 20
177.273940
 30
0.0
 10
52.188954
 20
177.273940
 30
0.0
 10
52.188954
 20
177.273940
 30
0.0
  0
SPLINE
  5
11e
100
AcDbEntity
  8
Layer_1
 62
7
100
AcDbSpline
 70
8
 71
3
 72
8
 73
4
 74
0
 40
0
 40
0
 40
0
 40
0
 40
1
 40
1
 40
1
 40
1
 10
54.488556
 20
177.273940
 30
0.0
 10
57.211991
 20
177.120200
 30
0.0
 10
60.778203
 20
178.001550
 30
0.0
 10
62.472565
 20
175.249940
 30
0.0
  0
SPLINE
  5
11f
100
AcDbEntity
  8
Layer_1
 62
7
100
AcDbSpline
 70
8
 71
3
 72
8
 73
4
 74
0
 40
0
 40
0
 40
0
 40
0
 40
1
 40
1
 40
1
 40
1
 10
62.472565
 20
175.249940
 30
0.0
 10
62.782674
 20
174.686970
 30
0.0
 10
62.876447
 20
174.032610
 30
0.0
 10
62.877364
 20
173.398210
 30
0.0
  0
LWPOLYLINE
  5
120
100
AcDbEntity
  8
Layer_1
 62
7
100
AcDbPolyline
 90
2
 70
0
 10
54.488556
 20
164.860100
 30
0.0
 10
54.488556
 20
177.273940
 30
0.0
  0
SPLINE
  5
121
100
AcDbEntity
  8
Layer_1
 62
7
100
AcDbSpline
 70
8
 71
3
 72
8
 73
4
 74
0
 40
0
 40
0
 40
0
 40
0
 40
1
 40
1
 40
1
 40
1
 10
61.103140
 20
173.355110
 30
0.0
 10
61.473503
 20
175.847280
 30
0.0
 10
57.117466
 20
176.489020
 30
0.0
 10
56.193878
 20
175.399210
 30
0.0
  0
LWPOLYLINE
  5
122
100
AcDbEntity
  8
Layer_1
 62
7
100
AcDbPolyline
 90
1
 70
1
 10
62.877364
 20
173.398210
 30
0.0
  0
SPLINE
  5
123
100
AcDbEntity
  8
Layer_1
 62
7
100
AcDbSpline
 70
8
 71
3
 72
8
 73
4
 74
0
 40
0
 40
0
 40
0
 40
0
 40
1
 40
1
 40
1
 40
1
 10
56.193878
 20
170.685160
 30
0.0
 10
58.181425
 20
170.610860
 30
0.0
 10
61.195709
 20
170.591260
 30
0.0
 10
61.103140
 20
173.355110
 30
0.0
  0
LWPOLYLINE
  5
124
100
AcDbEntity
  8
Layer_1
 62
7
100
AcDbPolyline
 90
2
 70
0
 10
56.193878
 20
175.399210
 30
0.0
 10
56.193878
 20
170.685160
 30
0.0
  0
SPLINE
  5
125
100
AcDbEntity
  8
Layer_1
 62
7
100
AcDbSpline
 70
8
 71
3
 72
8
 73
4
 74
0
 40
0
 40
0
 40
0
 40
0
 40
1
 40
1
 40
1
 40
1
 10
75.736181
 20
164.449540
 30
0.0
 10
74.397927
 20
164.335580
 30
0.0
 10
73.102484
 20
164.313570
 30
0.0
 10
72.465612
 20
165.706170
 30
0.0
  0
SPLINE
  5
126
100
AcDbEntity
  8
Layer_1
 62
7
100
AcDbSpline
 70
8
 71
3
 72
8
 73
4
 74
0
 40
0
 40
0
 40
0
 40
0
 40
1
 40
1
 40
1
 40
1
 10
72.465612
 20
165.706170
 30
0.0
 10
71.388262
 20
166.986870
 30
0.0
 10
70.310913
 20
168.267580
 30
0.0
 10
69.233563
 20
169.548280
 30
0.0
  0
SPLINE
  5
127
100
AcDbEntity
  8
Layer_1
 62
7
100
AcDbSpline
 70
8
 71
3
 72
8
 73
4
 74
0
 40
0
 40
0
 40
0
 40
0
 40
1
 40
1
 40
1
 40
1
 10
69.233563
 20
169.548280
 30
0.0
 10
67.961196
 20
169.540280
 30
0.0
 10
66.239054
 20
169.982920
 30
0.0
 10
66.830609
 20
168.111420
 30
0.0
  0
SPLINE
  5
128
100
AcDbEntity
  8
Layer_1
 62
7
100
AcDbSpline
 70
8
 71
3
 72
8
 73
4
 74
0
 40
0
 40
0
 40
0
 40
0
 40
1
 40
1
 40
1
 40
1
 10
66.830609
 20
168.111420
 30
0.0
 10
66.693262
 20
166.959720
 30
0.0
 10
67.105191
 20
165.258740
 30
0.0
 10
66.625344
 20
164.449540
 30
0.0
  0
SPLINE
  5
129
100
AcDbEntity
  8
Layer_1
 62
7
100
AcDbSpline
 70
8
 71
3
 72
8
 73
4
 74
0
 40
0
 40
0
 40
0
 40
0
 40
1
 40
1
 40
1
 40
1
 10
66.625344
 20
164.449540
 30
0.0
 10
64.790616
 20
163.867470
 30
0.0
 10
65.066997
 20
165.396510
 30
0.0
 10
65.125286
 20
166.707460
 30
0.0
  0
LWPOLYLINE
  5
12a
100
AcDbEntity
  8
Layer_1
 62
7
100
AcDbPolyline
 90
1
 70
1
 10
61.103140
 20
173.355110
 30
0.0
  0
SPLINE
  5
12b
100
AcDbEntity
  8
Layer_1
 62
7
100
AcDbSpline
 70
8
 71
3
 72
8
 73
4
 74
0
 40
0
 40
0
 40
0
 40
0
 40
1
 40
1
 40
1
 40
1
 10
65.125286
 20
177.273910
 30
0.0
 10
67.843770
 20
177.068160
 30
0.0
 10
71.297628
 20
178.073240
 30
0.0
 10
73.135134
 20
175.473850
 30
0.0
  0
SPLINE
  5
12c
100
AcDbEntity
  8
Layer_1
 62
7
100
AcDbSpline
 70
8
 71
3
 72
8
 73
4
 74
0
 40
0
 40
0
 40
0
 40
0
 40
1
 40
1
 40
1
 40
1
 10
73.135134
 20
175.473850
 30
0.0
 10
75.024518
 20
173.042200
 30
0.0
 10
71.446869
 20
170.679530
 30
0.0
 10
71.314628
 20
169.589590
 30
0.0
  0
LWPOLYLINE
  5
12d
100
AcDbEntity
  8
Layer_1
 62
7
100
AcDbPolyline
 90
2
 70
0
 10
65.125286
 20
166.707460
 30
0.0
 10
65.125286
 20
177.273910
 30
0.0
  0
SPLINE
  5
12e
100
AcDbEntity
  8
Layer_1
 62
7
100
AcDbSpline
 70
8
 71
3
 72
8
 73
4
 74
0
 40
0
 40
0
 40
0
 40
0
 40
1
 40
1
 40
1
 40
1
 10
71.748483
 20
173.665170
 30
0.0
 10
71.830663
 20
176.165480
 30
0.0
 10
68.171857
 20
176.071540
 30
0.0
 10
66.830609
 20
175.604470
 30
0.0
  0
LWPOLYLINE
  5
12f
100
AcDbEntity
  8
Layer_1
 62
7
100
AcDbPolyline
 90
3
 70
0
 10
71.314628
 20
169.589590
 30
0.0
 10
75.736181
 20
164.449540
 30
0.0
 10
75.736181
 20
164.449540
 30
0.0
  0
SPLINE
  5
130
100
AcDbEntity
  8
Layer_1
 62
7
100
AcDbSpline
 70
8
 71
3
 72
8
 73
4
 74
0
 40
0
 40
0
 40
0
 40
0
 40
1
 40
1
 40
1
 40
1
 10
66.830609
 20
170.969380
 30
0.0
 10
68.841037
 20
170.915280
 30
0.0
 10
71.955636
 20
170.768790
 30
0.0
 10
71.748483
 20
173.665170
 30
0.0
  0
LWPOLYLINE
  5
131
100
AcDbEntity
  8
Layer_1
 62
7
100
AcDbPolyline
 90
2
 70
0
 10
66.830609
 20
175.604470
 30
0.0
 10
66.830609
 20
170.969380
 30
0.0
  0
LWPOLYLINE
  5
132
100
AcDbEntity
  8
Layer_1
 62
7
100
AcDbPolyline
 90
1
 70
1
 10
71.748483
 20
173.665170
 30
0.0
  0
SPLINE
  5
133
100
AcDbEntity
  8
Layer_1
 62
7
100
AcDbSpline
 70
8
 71
3
 72
8
 73
4
 74
0
 40
0
 40
0
 40
0
 40
0
 40
1
 40
1
 40
1
 40
1
 10
85.838925
 20
177.273910
 30
0.0
 10
86.416557
 20
175.438360
 30
0.0
 10
84.905708
 20
175.691290
 30
0.0
 10
83.581008
 20
175.758070
 30
0.0
  0
LWPOLYLINE
  5
134
100
AcDbEntity
  8
Layer_1
 62
7
100
AcDbPolyline
 90
4
 70
0
 10
85.838925
 20
164.449540
 30
0.0
 10
77.389828
 20
164.449540
 30
0.0
 10
77.389828
 20
177.273910
 30
0.0
 10
85.838925
 20
177.273910
 30
0.0
  0
SPLINE
  5
135
100
AcDbEntity
  8
Layer_1
 62
7
100
AcDbSpline
 70
8
 71
3
 72
8
 73
4
 74
0
 40
0
 40
0
 40
0
 40
0
 40
1
 40
1
 40
1
 40
1
 10
79.095150
 20
175.758070
 30
0.0
 10
79.246703
 20
174.669870
 30
0.0
 10
78.800937
 20
172.984350
 30
0.0
 10
79.300415
 20
172.244070
 30
0.0
  0
LWPOLYLINE
  5
136
100
AcDbEntity
  8
Layer_1
 62
7
100
AcDbPolyline
 90
2
 70
0
 10
83.581008
 20
175.758070
 30
0.0
 10
79.095150
 20
175.758070
 30
0.0
  0
SPLINE
  5
137
100
AcDbEntity
  8
Layer_1
 62
7
100
AcDbSpline
 70
8
 71
3
 72
8
 73
4
 74
0
 40
0
 40
0
 40
0
 40
0
 40
1
 40
1
 40
1
 40
1
 10
85.838925
 20
172.244070
 30
0.0
 10
86.416557
 20
170.408520
 30
0.0
 10
84.905708
 20
170.661450
 30
0.0
 10
83.581008
 20
170.728230
 30
0.0
  0
LWPOLYLINE
  5
138
100
AcDbEntity
  8
Layer_1
 62
7
100
AcDbPolyline
 90
2
 70
0
 10
79.300415
 20
172.244070
 30
0.0
 10
85.838925
 20
172.244070
 30
0.0
  0
SPLINE
  5
139
100
AcDbEntity
  8
Layer_1
 62
7
100
AcDbSpline
 70
8
 71
3
 72
8
 73
4
 74
0
 40
0
 40
0
 40
0
 40
0
 40
1
 40
1
 40
1
 40
1
 10
97.862311
 20
168.109950
 30
0.0
 10
97.433169
 20
163.654490
 30
0.0
 10
91.712215
 20
163.601210
 30
0.0
 10
88.544943
 20
165.003450
 30
0.0
  0
SPLINE
  5
13a
100
AcDbEntity
  8
Layer_1
 62
7
100
AcDbSpline
 70
8
 71
3
 72
8
 73
4
 74
0
 40
0
 40
0
 40
0
 40
0
 40
1
 40
1
 40
1
 40
1
 10
88.544943
 20
165.003450
 30
0.0
 10
87.271594
 20
165.771650
 30
0.0
 10
87.922796
 20
168.890610
 30
0.0
 10
89.724888
 20
166.371790
 30
0.0
  0
SPLINE
  5
13b
100
AcDbEntity
  8
Layer_1
 62
7
100
AcDbSpline
 70
8
 71
3
 72
8
 73
4
 74
0
 40
0
 40
0
 40
0
 40
0
 40
1
 40
1
 40
1
 40
1
 10
89.724888
 20
166.371790
 30
0.0
 10
91.975398
 20
164.529730
 30
0.0
 10
98.377925
 20
166.295790
 30
0.0
 10
95.142839
 20
169.485840
 30
0.0
  0
SPLINE
  5
13c
100
AcDbEntity
  8
Layer_1
 62
7
100
AcDbSpline
 70
8
 71
3
 72
8
 73
4
 74
0
 40
0
 40
0
 40
0
 40
0
 40
1
 40
1
 40
1
 40
1
 10
95.142839
 20
169.485840
 30
0.0
 10
91.898297
 20
169.804230
 30
0.0
 10
85.821494
 20
171.512360
 30
0.0
 10
88.817858
 20
175.923860
 30
0.0
  0
SPLINE
  5
13d
100
AcDbEntity
  8
Layer_1
 62
7
100
AcDbSpline
 70
8
 71
3
 72
8
 73
4
 74
0
 40
0
 40
0
 40
0
 40
0
 40
1
 40
1
 40
1
 40
1
 10
88.817858
 20
175.923860
 30
0.0
 10
90.886389
 20
178.145160
 30
0.0
 10
95.495153
 20
177.990900
 30
0.0
 10
97.345547
 20
176.200200
 30
0.0
  0
SPLINE
  5
13e
100
AcDbEntity
  8
Layer_1
 62
7
100
AcDbSpline
 70
8
 71
3
 72
8
 73
4
 74
0
 40
0
 40
0
 40
0
 40
0
 40
1
 40
1
 40
1
 40
1
 10
97.345547
 20
176.200200
 30
0.0
 10
98.019325
 20
172.576170
 30
0.0
 10
93.636850
 20
177.632090
 30
0.0
 10
91.622382
 20
175.891560
 30
0.0
  0
SPLINE
  5
13f
100
AcDbEntity
  8
Layer_1
 62
7
100
AcDbSpline
 70
8
 71
3
 72
8
 73
4
 74
0
 40
0
 40
0
 40
0
 40
0
 40
1
 40
1
 40
1
 40
1
 10
91.622382
 20
175.891560
 30
0.0
 10
87.662479
 20
174.568690
 30
0.0
 10
91.419543
 20
170.979040
 30
0.0
 10
94.201897
 20
171.578740
 30
0.0
  0
SPLINE
  5
140
100
AcDbEntity
  8
Layer_1
 62
7
100
AcDbSpline
 70
8
 71
3
 72
8
 73
4
 74
0
 40
0
 40
0
 40
0
 40
0
 40
1
 40
1
 40
1
 40
1
 10
94.201897
 20
171.578740
 30
0.0
 10
96.006851
 20
171.351380
 30
0.0
 10
98.060219
 20
170.217800
 30
0.0
 10
97.862311
 20
168.109950
 30
0.0
  0
LWPOLYLINE
  5
141
100
AcDbEntity
  8
Layer_1
 62
7
100
AcDbPolyline
 90
6
 70
0
 10
83.581008
 20
170.728230
 30
0.0
 10
79.095150
 20
170.728230
 30
0.0
 10
79.095150
 20
165.965380
 30
0.0
 10
85.838925
 20
165.965380
 30
0.0
 10
85.838925
 20
164.449540
 30
0.0
 10
85.838925
 20
164.449540
 30
0.0
  0
SPLINE
  5
142
100
AcDbEntity
  8
Layer_1
 62
7
100
AcDbSpline
 70
8
 71
3
 72
8
 73
4
 74
0
 40
0
 40
0
 40
0
 40
0
 40
1
 40
1
 40
1
 40
1
 10
109.730660
 20
168.109950
 30
0.0
 10
109.301520
 20
163.654500
 30
0.0
 10
103.580560
 20
163.601210
 30
0.0
 10
100.413290
 20
165.003450
 30
0.0
  0
SPLINE
  5
143
100
AcDbEntity
  8
Layer_1
 62
7
100
AcDbSpline
 70
8
 71
3
 72
8
 73
4
 74
0
 40
0
 40
0
 40
0
 40
0
 40
1
 40
1
 40
1
 40
1
 10
100.413290
 20
165.003450
 30
0.0
 10
99.139940
 20
165.771650
 30
0.0
 10
99.791143
 20
168.890610
 30
0.0
 10
101.593240
 20
166.371790
 30
0.0
  0
SPLINE
  5
144
100
AcDbEntity
  8
Layer_1
 62
7
100
AcDbSpline
 70
8
 71
3
 72
8
 73
4
 74
0
 40
0
 40
0
 40
0
 40
0
 40
1
 40
1
 40
1
 40
1
 10
101.593240
 20
166.371790
 30
0.0
 10
103.843750
 20
164.529730
 30
0.0
 10
110.246260
 20
166.295790
 30
0.0
 10
107.011190
 20
169.485840
 30
0.0
  0
SPLINE
  5
145
100
AcDbEntity
  8
Layer_1
 62
7
100
AcDbSpline
 70
8
 71
3
 72
8
 73
4
 74
0
 40
0
 40
0
 40
0
 40
0
 40
1
 40
1
 40
1
 40
1
 10
107.011190
 20
169.485840
 30
0.0
 10
103.766640
 20
169.804230
 30
0.0
 10
97.689843
 20
171.512350
 30
0.0
 10
100.686210
 20
175.923860
 30
0.0
  0
SPLINE
  5
146
100
AcDbEntity
  8
Layer_1
 62
7
100
AcDbSpline
 70
8
 71
3
 72
8
 73
4
 74
0
 40
0
 40
0
 40
0
 40
0
 40
1
 40
1
 40
1
 40
1
 10
100.686210
 20
175.923860
 30
0.0
 10
102.754730
 20
178.145160
 30
0.0
 10
107.363500
 20
177.990900
 30
0.0
 10
109.213890
 20
176.200200
 30
0.0
  0
SPLINE
  5
147
100
AcDbEntity
  8
Layer_1
 62
7
100
AcDbSpline
 70
8
 71
3
 72
8
 73
4
 74
0
 40
0
 40
0
 40
0
 40
0
 40
1
 40
1
 40
1
 40
1
 10
109.213890
 20
176.200200
 30
0.0
 10
109.887670
 20
172.576170
 30
0.0
 10
105.505200
 20
177.632090
 30
0.0
 10
103.490730
 20
175.891560
 30
0.0
  0
SPLINE
  5
148
100
AcDbEntity
  8
Layer_1
 62
7
100
AcDbSpline
 70
8
 71
3
 72
8
 73
4
 74
0
 40
0
 40
0
 40
0
 40
0
 40
1
 40
1
 40
1
 40
1
 10
103.490730
 20
175.891560
 30
0.0
 10
99.530821
 20
174.568690
 30
0.0
 10
103.287890
 20
170.979050
 30
0.0
 10
106.070240
 20
171.578740
 30
0.0
  0
SPLINE
  5
149
100
AcDbEntity
  8
Layer_1
 62
7
100
AcDbSpline
 70
8
 71
3
 72
8
 73
4
 74
0
 40
0
 40
0
 40
0
 40
0
 40
1
 40
1
 40
1
 40
1
 10
106.070240
 20
171.578740
 30
0.0
 10
107.875200
 20
171.351380
 30
0.0
 10
109.928570
 20
170.217800
 30
0.0
 10
109.730660
 20
168.109950
 30
0.0
  0
LWPOLYLINE
  5
14a
100
AcDbEntity
  8
Layer_1
 62
7
100
AcDbPolyline
 90
1
 70
1
 10
97.862311
 20
168.109950
 30
0.0
  0
SPLINE
  5
14b
100
AcDbEntity
  8
Layer_1
 62
7
100
AcDbSpline
 70
8
 71
3
 72
8
 73
4
 74
0
 40
0
 40
0
 40
0
 40
0
 40
1
 40
1
 40
1
 40
1
 10
122.029650
 20
175.801130
 30
0.0
 10
124.953870
 20
172.338210
 30
0.0
 10
124.071300
 20
165.169030
 30
0.0
 10
118.997970
 20
164.292350
 30
0.0
  0
SPLINE
  5
14c
100
AcDbEntity
  8
Layer_1
 62
7
100
AcDbSpline
 70
8
 71
3
 72
8
 73
4
 74
0
 40
0
 40
0
 40
0
 40
0
 40
1
 40
1
 40
1
 40
1
 10
118.997970
 20
164.292350
 30
0.0
 10
114.649990
 20
163.134500
 30
0.0
 10
110.948690
 20
167.438470
 30
0.0
 10
111.763270
 20
171.620720
 30
0.0
  0
SPLINE
  5
14d
100
AcDbEntity
  8
Layer_1
 62
7
100
AcDbSpline
 70
8
 71
3
 72
8
 73
4
 74
0
 40
0
 40
0
 40
0
 40
0
 40
1
 40
1
 40
1
 40
1
 10
111.763270
 20
171.620720
 30
0.0
 10
111.574360
 20
175.914440
 30
0.0
 10
116.351810
 20
178.840980
 30
0.0
 10
120.160690
 20
177.084430
 30
0.0
  0
SPLINE
  5
14e
100
AcDbEntity
  8
Layer_1
 62
7
100
AcDbSpline
 70
8
 71
3
 72
8
 73
4
 74
0
 40
0
 40
0
 40
0
 40
0
 40
1
 40
1
 40
1
 40
1
 10
120.160690
 20
177.084430
 30
0.0
 10
120.867170
 20
176.799830
 30
0.0
 10
121.515550
 20
176.364870
 30
0.0
 10
122.029650
 20
175.801130
 30
0.0
  0
LWPOLYLINE
  5
14f
100
AcDbEntity
  8
Layer_1
 62
7
100
AcDbPolyline
 90
1
 70
1
 10
109.730660
 20
168.109950
 30
0.0
  0
SPLINE
  5
150
100
AcDbEntity
  8
Layer_1
 62
7
100
AcDbSpline
 70
8
 71
3
 72
8
 73
4
 74
0
 40
0
 40
0
 40
0
 40
0
 40
1
 40
1
 40
1
 40
1
 10
121.874620
 20
170.857420
 30
0.0
 10
122.310800
 20
173.909300
 30
0.0
 10
119.482120
 20
177.044230
 30
0.0
 10
116.348610
 20
175.876760
 30
0.0
  0
SPLINE
  5
151
100
AcDbEntity
  8
Layer_1
 62
7
100
AcDbSpline
 70
8
 71
3
 72
8
 73
4
 74
0
 40
0
 40
0
 40
0
 40
0
 40
1
 40
1
 40
1
 40
1
 10
116.348610
 20
175.876760
 30
0.0
 10
112.939420
 20
174.605260
 30
0.0
 10
112.784590
 20
169.599970
 30
0.0
 10
114.648540
 20
166.990300
 30
0.0
  0
SPLINE
  5
152
100
AcDbEntity
  8
Layer_1
 62
7
100
AcDbSpline
 70
8
 71
3
 72
8
 73
4
 74
0
 40
0
 40
0
 40
0
 40
0
 40
1
 40
1
 40
1
 40
1
 10
114.648540
 20
166.990300
 30
0.0
 10
116.725540
 20
164.417040
 30
0.0
 10
121.434560
 20
165.772480
 30
0.0
 10
121.714750
 20
169.130700
 30
0.0
  0
SPLINE
  5
153
100
AcDbEntity
  8
Layer_1
 62
7
100
AcDbSpline
 70
8
 71
3
 72
8
 73
4
 74
0
 40
0
 40
0
 40
0
 40
0
 40
1
 40
1
 40
1
 40
1
 10
121.714750
 20
169.130700
 30
0.0
 10
121.830710
 20
169.698350
 30
0.0
 10
121.874320
 20
170.278790
 30
0.0
 10
121.874620
 20
170.857420
 30
0.0
  0
LWPOLYLINE
  5
154
100
AcDbEntity
  8
Layer_1
 62
7
100
AcDbPolyline
 90
1
 70
1
 10
122.029650
 20
175.801130
 30
0.0
  0
LWPOLYLINE
  5
155
100
AcDbEntity
  8
Layer_1
 62
7
100
AcDbPolyline
 90
1
 70
1
 10
121.874620
 20
170.857420
 30
0.0
  0
ENDSEC
  0
SECTION
  2
OBJECTS
  0
DICTIONARY
  5
C
330
0
100
AcDbDictionary
  3
ACAD_GROUP
350
D
  3
ACAD_MLINESTYLE
350
17
  0
DICTIONARY
  5
D
330
C
100
AcDbDictionary
  0
DICTIONARY
  5
1A
330
C
100
AcDbDictionary
  0
DICTIONARY
  5
17
330
C
100
AcDbDictionary
  3
STANDARD
350
18
  0
DICTIONARY
  5
19
330
C
100
AcDbDictionary
  0
ENDSEC
  0
EOF
